<svg xmlns="http://www.w3.org/2000/svg" width="1024" height="1024">
  <g stroke-width=".32">
    <path d="M919.24 673.152s-1.352-8.3-2.143-8.225l-150.612 14.531a24.48 24.48 0 00-22.132 22.724l-4.138 59.305-116.52 8.313-7.925-53.748c-1.765-11.955-12.205-20.967-24.29-20.967H432.52c-12.08 0-22.52 9.012-24.285 20.967l-7.93 53.748-116.52-8.313-4.137-59.305a24.48 24.48 0 00-22.133-22.728l-150.686-14.527c-.778-.075-1.349 8.233-2.127 8.233l-.204 32.594 127.617 20.58 4.18 59.833c.845 12.113 10.618 21.908 22.74 22.778l160.473 11.447a26.39 26.39 0 001.806.067c12.06 0 22.482-9.017 24.247-20.972l8.155-55.304h116.574l8.154 55.304c1.761 11.951 12.197 20.967 24.273 20.967.59 0 1.182-.02 1.76-.062l160.494-11.447c12.117-.87 21.895-10.665 22.74-22.778l4.176-59.833 127.563-20.672z" fill="#fff"/>
    <path d="M104.699 427.387v245.765c.45.004.899.02 1.344.062l150.67 14.528a16.223 16.223 0 0114.628 15.023l4.645 66.51 131.43 9.378 9.054-61.386a16.222 16.222 0 0116.051-13.857h158.962c8.046 0 14.873 5.898 16.047 13.857l9.054 61.386 131.434-9.378 4.641-66.51a16.23 16.23 0 0114.628-15.023l150.611-14.528c.446-.041.891-.058 1.34-.062v-19.61l.063-.02V427.386h.558c19.96-25.475 38.43-52.32 56.141-80.958-23.523-40.045-52.345-75.83-83.152-108.986-28.572 14.382-56.325 30.674-82.537 48.012-13.116-13.038-27.89-23.702-42.4-34.85-14.257-11.451-30.325-19.847-45.564-29.63 4.537-33.787 6.781-67.05 7.684-101.767-39.32-19.789-81.25-32.91-123.663-42.333-16.933 28.46-32.418 59.28-45.905 89.408-15.993-2.672-32.06-3.663-48.149-3.854v-.025c-.112 0-.216.025-.312.025-.1 0-.204-.025-.304-.025v.025c-16.117.191-32.173 1.182-48.17 3.854-13.478-30.129-28.955-60.949-45.913-89.408-42.392 9.424-84.326 22.544-123.642 42.333.899 34.717 3.143 67.98 7.692 101.768-15.268 9.782-31.315 18.178-45.576 29.63-14.49 11.147-29.288 21.811-42.409 34.849-26.212-17.338-53.956-33.63-82.536-48.012C100.337 270.598 71.531 306.384 48 346.43c17.704 28.638 36.186 55.483 56.141 80.958z" fill="#478cbf"/>
    <path d="M784.071 718.723l-4.666 66.864c-.562 8.059-6.972 14.474-15.031 15.052l-160.49 11.451c-.39.03-.782.042-1.17.042-7.975 0-14.856-5.853-16.034-13.861l-9.203-62.415H446.525l-9.203 62.415c-1.237 8.4-8.746 14.44-17.204 13.82l-160.49-11.452c-8.059-.578-14.469-6.993-15.03-15.052l-4.667-66.864-135.48-13.062c.062 14.56.249 30.512.249 33.688 0 143.085 181.51 211.86 407.024 212.651h.554c225.514-.79 406.962-69.566 406.962-212.651 0-3.234.195-19.119.262-33.688z" fill="#478cbf"/>
    <path d="M389.215 527.151c0 50.168-40.648 90.808-90.8 90.808-50.125 0-90.786-40.64-90.786-90.808 0-50.134 40.66-90.753 90.787-90.753 50.15 0 90.799 40.619 90.799 90.753" fill="#fff"/>
    <path d="M367.367 532.537c0 33.276-26.97 60.246-60.27 60.246-33.285 0-60.271-26.97-60.271-60.246s26.986-60.27 60.27-60.27c33.301 0 60.27 26.994 60.27 60.27" fill="#414042"/>
    <path d="M511.993 626.22c-16.142 0-29.225-11.897-29.225-26.562v-83.59c0-14.652 13.083-26.56 29.225-26.56 16.143 0 29.255 11.908 29.255 26.56v83.59c0 14.665-13.112 26.562-29.255 26.562M634.787 527.151c0 50.168 40.648 90.808 90.807 90.808 50.122 0 90.779-40.64 90.779-90.808 0-50.134-40.657-90.753-90.779-90.753-50.159 0-90.807 40.619-90.807 90.753" fill="#fff"/>
    <path d="M656.64 532.537c0 33.276 26.962 60.246 60.238 60.246 33.309 0 60.27-26.97 60.27-60.246s-26.961-60.27-60.27-60.27c-33.276 0-60.237 26.994-60.237 60.27" fill="#414042"/>
  </g>
</svg>
